PathFileType	4	(X/Y/Z)	TRC_missing_Z7.trc
DataRate	CameraRate	NumFrames	NumMarkers	Units	OrigDataRate	OrigDataStartFrame	OrigNumFrames
100.0	100.0	9	37	mm	100.0	1	2609	
Frame#	Time	T10			C7			CLAV			RACR1			LACR1			RPSI			LPSI			RASI			LASI			LTH2			LTH3			LTH1			RTH2			RTH3			RTH1			RLFC			RMFC			RTB1			RTB3			RTB2			LLFC			LMFC			LTB1			LTB3			LTB2			LLMAL			LCAL			LMMAL			RLMAL			RMMAL			RCAL			RMT5			RMT1			RToe			LMT5			LMT1			LToe			
		X1	Y1	Z1	X2	Y2	Z2	X3	Y3	Z3	X4	Y4	Z4	X5	Y5	Z5	X6	Y6	Z6	X7	Y7	X8	Y8	Z8	X9	Y9	Z9	X10	Y10	Z10	X11	Y11	Z11	X12	Y12	Z12	X13	Y13	Z13	X14	Y14	Z14	X15	Y15	Z15	X16	Y16	Z16	X17	Y17	Z17	X18	Y18	Z18	X19	Y19	Z19	X20	Y20	Z20	X21	Y21	Z21	X22	Y22	Z22	X23	Y23	Z23	X24	Y24	Z24	X25	Y25	Z25	X26	Y26	Z26	X27	Y27	Z27	X28	Y28	Z28	X29	Y29	Z29	X30	Y30	Z30	X31	Y31	Z31	X32	Y32	Z32	X33	Y33	Z33	X34	Y34	Z34	X35	Y35	Z35	X36	Y36	Z36	X37	Y37	Z37	
1	0	714.91492	1225.1962	-694.01227	723.95074	1479.1134	-560.67291	732.09332	1316.3214	-470.92319	566.10156	1430.2278	-522.0564	901.64423	1414.4681	-563.46167	674.91998	1014.8667	-760.76001	762.75916	1012.5732	-751.76239	569.63843	964.9574	-539.32697	823.35034	971.47101	-511.4938	863.6955	720.69189	-470.72446	901.40857	774.35791	-519.26038	851.37219	860.48297	-496.72644	583.35352	676.78674	-593.72278	540.97504	751.23792	-604.94312	592.66919	789.16254	-543.242	584.53967	488.89926	-732.36212				632.63593	373.35989	-742.9212	609.1615	311.89743	-795.87012	636.81177	262.19098	-813.76166	845.47925	509.80704	-463.25601				792.90851	399.83618	-419.02176	829.20605	333.95377	-437.87549	791.12964	279.9024	-435.76501	832.99353	81.649231	-494.33752	797.97198	33.319874	-554.15527				622.05536	118.41447	-947.13373				662.12476	100.50311	-1023.2979	611.44476	50.257996	-861.53094	685.90094	48.28936	-829.52466				837.05902	42.432533	-374.68411	766.18646	57.470757	-355.49475			
2	0.01	715.65143	1225.178	-693.0144	724.89209	1479.2164	-559.94556	733.04144	1316.4655	-470.15891	567.01862	1430.3738	-521.15576	902.54724	1414.5969	-562.79504	675.36542	1014.9302	-759.76831	763.23584	1012.7379	-750.92822	570.43195	965.01672	-538.24432	824.14093	971.5957	-510.75708	863.81976	720.74921	-470.36597	901.64069	774.43848	-518.86182	851.93713	860.5603	-496.07913	584.07812	676.77954	-593.32861	541.65747	751.20398	-604.38519	593.45551	789.13129	-542.68652	585.03345	489.01825	-732.35382				633.03528	373.43814	-743.47974	609.45972	312.27634	-796.76801	637.03088	262.61798	-814.77472	845.54327	509.55481	-463.29459				792.91022	399.35385	-419.75873	829.15717	333.51733	-438.83115	791.03918	279.51157	-437.00314	832.91541	81.598106	-496.33621	797.96851	33.436924	-556.28497				622.08826	119.43257	-948.76318				662.1991	101.96851	-1025.051	611.39203	50.383533	-863.4397	685.84357	48.251148	-831.53638				837.15771	42.284477	-376.61893	766.06189	57.193592	-357.38947			
3	0.02	716.53516	1225.1619	-691.83795	726.01349	1479.3406	-559.08215	734.17407	1316.6384	-469.24966	568.11377	1430.5474	-520.08954	903.62579	1414.7548	-561.995	675.90479	1015.0042	-758.59662	763.81171	1012.9342	-749.94189	571.38531	965.08795	-536.96558	825.08954	971.7417	-509.88568	864.01343	720.78973	-469.96262	901.95435	774.52502	-518.39099	852.63177	860.63831	-495.31979	584.90967	676.77203	-592.79944	542.45514	751.16968	-603.68201	594.38556	789.10583	-541.99707	585.5769	489.14835	-732.26294				633.44769	373.52216	-744.05615	609.76703	312.73615	-797.76056	637.24481	263.13385	-815.91217	845.63385	509.24463	-463.40741				792.92035	398.77805	-420.69293	829.10779	332.99539	-440.02505	790.93805	279.04443	-438.53964	832.82281	81.536041	-498.79266	797.96399	33.57045	-558.89893				622.12207	120.68882	-950.67236				662.30408	103.80174	-1027.0819	611.33197	50.524879	-865.78479	685.78162	48.187893	-834.02289				837.26624	42.115833	-379.01306	765.90466	56.875282	-359.74026			
4	0.03	717.73663	1225.1613	-690.31488	727.50909	1479.5099	-557.94196	735.69574	1316.8737	-468.04153	569.37054	1430.7449	-518.87708	904.86395	1414.9408	-561.07178	676.65662	1015.0962	-757.06995	764.60895	1013.1976	-748.65393	572.68658	965.18542	-535.30139	826.37964	971.92712	-508.7468	864.29053	720.80182	-469.53137	902.35828	774.61188	-517.85852	853.45349	860.71063	-494.46484	585.82251	676.76471	-592.12048	543.34979	751.138	-602.82953	595.44232	789.09113	-541.17377	586.14404	489.28293	-732.05939				633.84216	373.60712	-744.60699	610.05981	313.27295	-798.80206	637.43188	263.73346	-817.12897	845.75531	508.87775	-463.61829				792.94183	398.11743	-421.83121	829.06213	332.39529	-441.4599	790.83057	278.50766	-440.37399	832.71716	81.463547	-501.69641	797.9585	33.716061	-561.98492				622.15369	122.17993	-952.81769				662.44391	106.00755	-1029.3346	611.26697	50.67688	-868.55634	685.71832	48.094131	-836.979				837.37927	41.93219	-381.86203	765.71405	56.525459	-362.54501			
5	0.04	718.84747	1225.1603	-688.90607	728.89209	1479.6664	-556.88763	737.10229	1317.0909	-466.92459	570.76654	1430.9626	-517.54413	906.23944	1415.1536	-560.04028	677.35138	1015.1815	-755.6582	765.34583	1013.4411	-747.46313	573.88928	965.27557	-533.7627	827.57208	972.09857	-507.69376	864.6637	720.77332	-469.0932	902.85931	774.69208	-517.28003	854.39545	860.7699	-493.53549	586.78595	676.75836	-591.28027	544.31787	751.11212	-601.82843	596.60278	789.09222	-540.22101	586.7052	489.41473	-731.71338				634.18506	373.6879	-745.08466	610.31268	313.88025	-799.84064	637.56836	264.40851	-818.37238	845.91107	508.45743	-463.95004				792.97772	397.38403	-423.17499	829.02466	331.72772	-443.13089	790.7218	277.91098	-442.49591	832.60095	81.381523	-505.02127	797.95197	33.868587	-565.51337				622.1792	123.89479	-955.14166				662.62152	108.5793	-1031.7372	611.19946	50.834026	-871.72913	685.65753	47.965462	-840.38367				837.49146	41.74004	-385.14551	765.49091	56.155598	-365.7858			
6	0.05	720.05817	1225.1681	-687.40393	730.38666	1479.8372	-555.75317	738.62683	1317.3278	-465.71973	572.27649	1431.1962	-516.11859	907.72772	1415.3907	-558.91748	678.11658	1015.2707	-754.14911	766.15503	1013.7047	-746.18866	575.20166	965.37408	-532.11871	828.87146	972.27991	-506.56628	865.14331	720.69269	-468.67093	903.4613	774.758	-516.67493	855.44781	860.80981	-492.55429	587.76807	676.7536	-590.27069	545.33447	751.09515	-600.68256	597.84222	789.11426	-539.14606	587.2309	489.53674	-731.19745				634.44385	373.75967	-745.44299	610.50092	314.55026	-800.82355	637.63135	265.14972	-819.58856	846.10413	507.98804	-464.42282				793.03107	396.59137	-424.72144	829.00018	331.00439	-445.0289	790.61676	277.2652	-444.8894	832.47668	81.291039	-508.73184	797.94434	34.022797	-569.44501				622.19397	125.8177	-957.58154				662.83771	111.50313	-1034.2124	611.13202	50.991497	-875.26904	685.60321	47.799221	-844.20538				837.59772	41.545868	-388.83279	765.23706	55.77747	-369.43423			
7	0.06	721.35242	1225.1871	-685.83624	731.96991	1480.0201	-554.55743	740.24658	1317.5803	-464.44638	573.87543	1431.4413	-514.62762	909.30432	1415.6497	-557.72003	678.9436	1015.362	-752.57007	767.02716	1013.9847	-744.85364	576.6062	965.47992	-530.39978	830.25989	972.46698	-505.38467	865.73584	720.54968	-468.28778	904.1651	774.80194	-516.06476	856.6001	860.82434	-491.54309	588.73853	676.75146	-589.0863	546.37524	751.09015	-599.39764	599.13593	789.16125	-537.95764	587.69336	489.64261	-730.4873				634.58887	373.81857	-745.6394	610.60205	315.27524	-801.7016	637.59998	265.94788	-820.72614	846.33691	507.47455	-465.05307				793.10455	395.75281	-426.46561	828.99255	330.23715	-447.1424	790.52039	276.58121	-447.53552	832.34705	81.193169	-512.78802	797.93561	34.173855	-573.73553				622.1925	127.93095	-960.0733				663.09131	114.76118	-1036.6809	611.06726	51.146042	-879.13757	685.55847	47.594963	-848.40747				837.69403	41.355541	-392.88739	764.95551	55.402073	-373.45569			
8	0.07	722.71423	1225.2189	-684.22986	733.61957	1480.2133	-553.31842	741.93915	1317.8457	-463.12329	575.54059	1431.6941	-513.09613	910.94678	1415.9274	-556.46344	679.82397	1015.4534	-750.94775	767.95276	1014.2773	-743.47998	578.08551	965.59174	-528.63501	831.71973	972.65662	-504.16821	866.44427	720.33643	-467.96582	904.96924	774.81689	-515.47192	857.841	860.80878	-490.52191	589.66962	676.7533	-587.72388	547.41797	751.09961	-597.98053	600.46167	789.23724	-536.66498	588.06793	489.72717	-729.56189				634.59497	373.86169	-745.63672	610.59686	316.04813	-802.43024	637.45544	266.79477	-821.73853	846.61108	506.92224	-465.85355				793.20068	394.88089	-428.40082	829.00568	329.43689	-449.45895	790.43713	275.86917	-450.41431	832.21478	81.089005	-517.14868	797.92584	34.317589	-578.33948				622.1684	130.21661	-962.55511				663.37878	118.33388	-1039.0668	611.00732	51.296597	-883.29431	685.52618	47.354935	-852.95013				837.77753	41.173973	-397.26993	764.65021	55.038986	-377.81216			
9	0.08	724.12958	1225.2648	-682.60828	735.31573	1480.4144	-552.05219	743.68414	1318.1205	-461.76727	577.25195	1431.951	-511.54584	912.6355	1416.2217	-555.16113	680.75	1015.5433	-749.30615	768.92322	1014.5793	-742.08752	579.62341	965.70868	-526.85077	833.23492	972.8454	-502.93445	867.26788	720.04785	-467.72461	905.86945	774.79657	-514.91864	859.1601	860.75964	-489.50833	590.5379	676.76044	-586.18262	548.44342	751.12585	-596.43896	601.79956	789.34546	-535.27734	588.33398	489.78641	-728.40381				634.44189	373.88742	-745.4032	610.46948	316.8627	-802.97107	637.18243	267.68362	-822.58459	846.92786	506.33621	-466.83301				793.32178	393.98654	-430.52005	829.04272	328.61343	-451.96637	790.37128	275.13824	-453.50613	832.08228	80.979507	-521.77374	797.91492	34.450706	-583.21252				622.11469	132.65775	-964.96918				663.69409	122.20161	-1041.2983	610.95398	51.444851	-887.69873	685.5083	47.084358	-857.79297				837.84662	41.004894	-401.94077	764.32574	54.69598	-382.46484			
